<svg width="32" height="32" viewBox="0 0 32 32" fill="none" xmlns="http://www.w3.org/2000/svg">
<ellipse cx="16" cy="14.6667" rx="2.66667" ry="2.66667" stroke="url(#paint0_linear_2039_1264)" stroke-width="1.5" stroke-linecap="round"/>
<path d="M5.33335 22.6679C3.65893 20.4393 2.66669 17.6688 2.66669 14.6666C2.66669 7.30285 8.63622 1.33331 16 1.33331C23.3638 1.33331 29.3334 7.30285 29.3334 14.6666C29.3334 17.6688 28.3411 20.4393 26.6667 22.6679" stroke="url(#paint1_linear_2039_1264)" stroke-width="1.5" stroke-linecap="round"/>
<path d="M10.037 20C8.77028 18.5846 8 16.7156 8 14.6666C8 10.2483 11.5817 6.66663 16 6.66663C20.4183 6.66663 24 10.2483 24 14.6666C24 16.7156 23.2297 18.5846 21.963 20" stroke="url(#paint2_linear_2039_1264)" stroke-width="1.5" stroke-linecap="round"/>
<path d="M13.2688 23.8345C14.2963 22.344 14.8101 21.5987 15.4771 21.407C15.8193 21.3087 16.1808 21.3087 16.523 21.407C17.1899 21.5987 17.7037 22.344 18.7313 23.8345C20.0986 25.8178 20.7823 26.8094 20.6507 27.636C20.584 28.0552 20.3918 28.442 20.1014 28.7419C19.5287 29.3333 18.3525 29.3333 16 29.3333C13.6476 29.3333 12.4714 29.3333 11.8987 28.7419C11.6083 28.442 11.4161 28.0552 11.3494 27.636C11.2178 26.8094 11.9014 25.8178 13.2688 23.8345Z" stroke="url(#paint3_linear_2039_1264)" stroke-width="1.5" stroke-linecap="round" stroke-linejoin="round"/>
<defs>
<linearGradient id="paint0_linear_2039_1264" x1="13.3334" y1="12" x2="19.7039" y2="13.9567" gradientUnits="userSpaceOnUse">
<stop stop-color="#D350FC"/>
<stop offset="0.355" stop-color="#B395FF"/>
<stop offset="0.67" stop-color="#6FB9DA"/>
<stop offset="1" stop-color="#34F9BD"/>
</linearGradient>
<linearGradient id="paint1_linear_2039_1264" x1="2.66669" y1="1.33331" x2="33.0463" y2="12.9967" gradientUnits="userSpaceOnUse">
<stop stop-color="#D350FC"/>
<stop offset="0.355" stop-color="#B395FF"/>
<stop offset="0.67" stop-color="#6FB9DA"/>
<stop offset="1" stop-color="#34F9BD"/>
</linearGradient>
<linearGradient id="paint2_linear_2039_1264" x1="8" y1="6.66663" x2="26.413" y2="13.4534" gradientUnits="userSpaceOnUse">
<stop stop-color="#D350FC"/>
<stop offset="0.355" stop-color="#B395FF"/>
<stop offset="0.67" stop-color="#6FB9DA"/>
<stop offset="1" stop-color="#34F9BD"/>
</linearGradient>
<linearGradient id="paint3_linear_2039_1264" x1="11.3334" y1="21.3333" x2="22.1451" y2="25.2077" gradientUnits="userSpaceOnUse">
<stop stop-color="#D350FC"/>
<stop offset="0.355" stop-color="#B395FF"/>
<stop offset="0.67" stop-color="#6FB9DA"/>
<stop offset="1" stop-color="#34F9BD"/>
</linearGradient>
</defs>
</svg>
