<svg width="48" height="48" viewBox="0 0 48 48" fill="none" xmlns="http://www.w3.org/2000/svg">
<g clip-path="url(#clip0_2039_1272)">
<path d="M32 36.0002L42.3806 24.676C42.6747 24.3551 42.8217 24.1947 42.8217 24.0002C42.8217 23.8058 42.6747 23.6453 42.3806 23.3245L32 12.0002" stroke="#448EB0" stroke-width="1.5" stroke-linecap="round" stroke-linejoin="round"/>
<path d="M17 36.0002L27.3806 24.676C27.6747 24.3551 27.8217 24.1947 27.8217 24.0002C27.8217 23.8058 27.6747 23.6453 27.3806 23.3245L17 12.0002" stroke="#37728D" stroke-width="1.5" stroke-linecap="round" stroke-linejoin="round"/>
<path d="M2 36.0002L12.3806 24.676C12.6747 24.3551 12.8217 24.1947 12.8217 24.0002C12.8217 23.8058 12.6747 23.6453 12.3806 23.3245L2 12.0002" stroke="#29566A" stroke-width="1.5" stroke-linecap="round" stroke-linejoin="round"/>
</g>
<defs>
<clipPath id="clip0_2039_1272">
<rect width="48" height="48" fill="white" transform="translate(0 48) rotate(-90)"/>
</clipPath>
</defs>
</svg>
