<svg width="25" height="24" viewBox="0 0 25 24" fill="none" xmlns="http://www.w3.org/2000/svg">
<g id="google">
<path id="vector" d="M23.0011 12.2332C23.0011 11.3699 22.9296 10.7399 22.7749 10.0865H12.7153V13.9832H18.6201C18.5011 14.9515 17.8582 16.4099 16.4296 17.3898L16.4096 17.5203L19.5902 19.935L19.8106 19.9565C21.8343 18.1249 23.0011 15.4298 23.0011 12.2332Z" fill="#4285F4"/>
<path id="vector_2" d="M12.7147 22.5C15.6075 22.5 18.036 21.5666 19.8099 19.9566L16.4289 17.3898C15.5242 18.0082 14.3099 18.4399 12.7147 18.4399C9.88138 18.4399 7.47664 16.6082 6.61942 14.0765L6.49377 14.087L3.18652 16.5954L3.14326 16.7132C4.90514 20.1432 8.52419 22.5 12.7147 22.5Z" fill="#34A853"/>
<path id="vector_3" d="M6.62005 14.0766C6.39386 13.4233 6.26296 12.7232 6.26296 11.9999C6.26296 11.2765 6.39386 10.5766 6.60815 9.92325L6.60216 9.78411L3.25345 7.23547L3.14388 7.28655C2.41772 8.7099 2.00105 10.3083 2.00105 11.9999C2.00105 13.6916 2.41772 15.2899 3.14388 16.7132L6.62005 14.0766Z" fill="#FBBC05"/>
<path id="vector_4" d="M12.7147 5.55997C14.7266 5.55997 16.0837 6.41163 16.8576 7.12335L19.8814 4.23C18.0243 2.53834 15.6076 1.5 12.7147 1.5C8.52422 1.5 4.90515 3.85665 3.14326 7.28662L6.60754 9.92332C7.47667 7.39166 9.88142 5.55997 12.7147 5.55997Z" fill="#EB4335"/>
</g>
</svg>
