<svg width="56" height="56" viewBox="0 0 56 56" fill="none" xmlns="http://www.w3.org/2000/svg">
<rect x="0.5" y="0.5" width="55" height="55" rx="27.5" fill="#0D0D0D"/>
<rect x="0.5" y="0.5" width="55" height="55" rx="27.5" stroke="url(#paint0_linear_1_4247)"/>
<circle cx="28" cy="28" r="24" fill="#0B090D"/>
<g clip-path="url(#clip0_1_4247)">
<path d="M39.8764 34.384L35.9145 38.5693C35.8284 38.6602 35.7242 38.7327 35.6084 38.7822C35.4926 38.8317 35.3676 38.8573 35.2414 38.8572H16.46C16.3703 38.8572 16.2827 38.8314 16.2077 38.783C16.1328 38.7346 16.0738 38.6657 16.0381 38.5847C16.0024 38.5038 15.9915 38.4143 16.0067 38.3273C16.0219 38.2403 16.0625 38.1596 16.1237 38.0951L20.0886 33.9098C20.1745 33.8191 20.2783 33.7468 20.3938 33.6972C20.5092 33.6477 20.6337 33.622 20.7596 33.6218H39.5401C39.6297 33.6218 39.7173 33.6476 39.7923 33.696C39.8672 33.7444 39.9261 33.8134 39.962 33.8943C39.9976 33.9753 40.0086 34.0647 39.9933 34.1517C39.9781 34.2387 39.9375 34.3195 39.8764 34.384ZM35.9145 25.956C35.8284 25.8651 35.7242 25.7926 35.6084 25.7431C35.4926 25.6936 35.3676 25.668 35.2414 25.6681H16.46C16.3703 25.6681 16.2827 25.6939 16.2077 25.7423C16.1328 25.7907 16.0738 25.8596 16.0381 25.9406C16.0024 26.0215 15.9915 26.111 16.0067 26.198C16.0219 26.285 16.0625 26.3657 16.1237 26.4303L20.0886 30.6155C20.1745 30.7062 20.2783 30.7785 20.3938 30.8281C20.5092 30.8776 20.6337 30.9033 20.7596 30.9035H39.5401C39.6297 30.9035 39.7173 30.8777 39.7923 30.8293C39.8672 30.7809 39.9261 30.712 39.962 30.631C39.9976 30.55 40.0086 30.4606 39.9933 30.3736C39.9781 30.2866 39.9375 30.2059 39.8764 30.1413L35.9145 25.956ZM16.46 22.9497H35.2414C35.3676 22.9498 35.4926 22.9243 35.6084 22.8747C35.7242 22.8252 35.8284 22.7527 35.9145 22.6618L39.8764 18.4765C39.9375 18.412 39.9781 18.3312 39.9933 18.2442C40.0086 18.1573 39.9976 18.0678 39.962 17.9868C39.9261 17.9059 39.8672 17.837 39.7923 17.7886C39.7173 17.7401 39.6297 17.7144 39.5401 17.7144H20.7596C20.6337 17.7146 20.5092 17.7402 20.3938 17.7898C20.2783 17.8393 20.1745 17.9116 20.0886 18.0023L16.1247 22.1876C16.0636 22.252 16.023 22.3327 16.0077 22.4196C15.9925 22.5065 16.0033 22.5959 16.0389 22.6768C16.0745 22.7577 16.1333 22.8266 16.2081 22.8751C16.2829 22.9236 16.3704 22.9495 16.46 22.9497Z" fill="url(#paint1_linear_1_4247)"/>
</g>
<defs>
<linearGradient id="paint0_linear_1_4247" x1="0" y1="0" x2="66.89" y2="20.5457" gradientUnits="userSpaceOnUse">
<stop stop-color="#D350FC"/>
<stop offset="0.355" stop-color="#B395FF"/>
<stop offset="0.67" stop-color="#6FB9DA"/>
<stop offset="1" stop-color="#34F9BD"/>
</linearGradient>
<linearGradient id="paint1_linear_1_4247" x1="18.0259" y1="39.3611" x2="37.3888" y2="17.201" gradientUnits="userSpaceOnUse">
<stop offset="0.08" stop-color="#9945FF"/>
<stop offset="0.3" stop-color="#8752F3"/>
<stop offset="0.5" stop-color="#5497D5"/>
<stop offset="0.6" stop-color="#43B4CA"/>
<stop offset="0.72" stop-color="#28E0B9"/>
<stop offset="0.97" stop-color="#19FB9B"/>
</linearGradient>
<clipPath id="clip0_1_4247">
<rect width="24" height="21.1429" fill="white" transform="translate(16 17.7144)"/>
</clipPath>
</defs>
</svg>
