<svg width="163" height="56" viewBox="0 0 163 56" fill="none" xmlns="http://www.w3.org/2000/svg">
<g filter="url(#filter0_bi_1_4436)">
<rect width="163" height="56" rx="28" fill="url(#paint0_linear_1_4436)"/>
<path d="M28.24 29.56C28.1 29.54 27.92 29.54 27.76 29.56C24.24 29.44 21.44 26.56 21.44 23.02C21.44 19.4 24.36 16.46 28 16.46C31.62 16.46 34.56 19.4 34.56 23.02C34.54 26.56 31.76 29.44 28.24 29.56Z" fill="#F7F7F7" stroke="#F7F7F7" stroke-width="1.5" stroke-linecap="round" stroke-linejoin="round"/>
<path d="M41.48 42.76C37.92 46.02 33.2 48 28 48C22.8 48 18.08 46.02 14.52 42.76C14.72 40.88 15.92 39.04 18.06 37.6C23.54 33.96 32.5 33.96 37.94 37.6C40.08 39.04 41.28 40.88 41.48 42.76Z" fill="#F7F7F7" stroke="#F7F7F7" stroke-width="1.5" stroke-linecap="round" stroke-linejoin="round"/>
<path d="M28 48C39.0457 48 48 39.0457 48 28C48 16.9543 39.0457 8 28 8C16.9543 8 8 16.9543 8 28C8 39.0457 16.9543 48 28 48Z" stroke="#F7F7F7" stroke-width="1.5" stroke-linecap="round" stroke-linejoin="round"/>
<path d="M59.986 24.626L59.86 23.156L60.854 23.1C61.6847 23.044 62.1 22.5867 62.1 21.728V14.63H63.892V21.714C63.892 23.4873 62.9727 24.4393 61.134 24.57L59.986 24.626ZM69.0086 24.64C68.2992 24.64 67.6832 24.4953 67.1606 24.206C66.6379 23.9167 66.2319 23.506 65.9426 22.974C65.6532 22.4327 65.5086 21.798 65.5086 21.07C65.5086 20.342 65.6532 19.712 65.9426 19.18C66.2319 18.648 66.6379 18.2373 67.1606 17.948C67.6832 17.6587 68.2992 17.514 69.0086 17.514C69.7179 17.514 70.3339 17.6587 70.8566 17.948C71.3792 18.2373 71.7852 18.648 72.0746 19.18C72.3639 19.712 72.5086 20.342 72.5086 21.07C72.5086 21.798 72.3639 22.4327 72.0746 22.974C71.7852 23.506 71.3792 23.9167 70.8566 24.206C70.3339 24.4953 69.7179 24.64 69.0086 24.64ZM69.0086 23.31C69.5312 23.31 69.9512 23.1233 70.2686 22.75C70.5859 22.3673 70.7446 21.8073 70.7446 21.07C70.7446 20.3233 70.5859 19.768 70.2686 19.404C69.9512 19.0307 69.5312 18.844 69.0086 18.844C68.4859 18.844 68.0659 19.0307 67.7486 19.404C67.4312 19.768 67.2726 20.3233 67.2726 21.07C67.2726 21.8073 67.4312 22.3673 67.7486 22.75C68.0659 23.1233 68.4859 23.31 69.0086 23.31ZM73.953 24.5V14.63H75.703V18.648C75.9363 18.2747 76.249 17.9947 76.641 17.808C77.033 17.612 77.467 17.514 77.943 17.514C79.5576 17.514 80.365 18.452 80.365 20.328V24.5H78.615V20.412C78.615 19.88 78.5123 19.4927 78.307 19.25C78.111 19.0073 77.803 18.886 77.383 18.886C76.8696 18.886 76.459 19.0493 76.151 19.376C75.8523 19.6933 75.703 20.118 75.703 20.65V24.5H73.953ZM82.1424 24.5V17.654H83.8504V18.718C84.0838 18.326 84.3964 18.0273 84.7884 17.822C85.1898 17.6167 85.6378 17.514 86.1324 17.514C87.7471 17.514 88.5544 18.452 88.5544 20.328V24.5H86.8044V20.412C86.8044 19.88 86.7018 19.4927 86.4964 19.25C86.3004 19.0073 85.9924 18.886 85.5724 18.886C85.0591 18.886 84.6484 19.0493 84.3404 19.376C84.0418 19.6933 83.8924 20.118 83.8924 20.65V24.5H82.1424ZM94.2733 24.5V14.63H97.9413C99.5933 14.63 100.867 15.0547 101.763 15.904C102.669 16.7533 103.121 17.9713 103.121 19.558C103.121 21.1353 102.669 22.3533 101.763 23.212C100.867 24.0707 99.5933 24.5 97.9413 24.5H94.2733ZM96.0653 23.016H97.8293C100.107 23.016 101.245 21.8633 101.245 19.558C101.245 17.262 100.107 16.114 97.8293 16.114H96.0653V23.016ZM107.891 24.64C107.182 24.64 106.566 24.4953 106.043 24.206C105.521 23.9167 105.115 23.506 104.825 22.974C104.536 22.4327 104.391 21.798 104.391 21.07C104.391 20.342 104.536 19.712 104.825 19.18C105.115 18.648 105.521 18.2373 106.043 17.948C106.566 17.6587 107.182 17.514 107.891 17.514C108.601 17.514 109.217 17.6587 109.739 17.948C110.262 18.2373 110.668 18.648 110.957 19.18C111.247 19.712 111.391 20.342 111.391 21.07C111.391 21.798 111.247 22.4327 110.957 22.974C110.668 23.506 110.262 23.9167 109.739 24.206C109.217 24.4953 108.601 24.64 107.891 24.64ZM107.891 23.31C108.414 23.31 108.834 23.1233 109.151 22.75C109.469 22.3673 109.627 21.8073 109.627 21.07C109.627 20.3233 109.469 19.768 109.151 19.404C108.834 19.0307 108.414 18.844 107.891 18.844C107.369 18.844 106.949 19.0307 106.631 19.404C106.314 19.768 106.155 20.3233 106.155 21.07C106.155 21.8073 106.314 22.3673 106.631 22.75C106.949 23.1233 107.369 23.31 107.891 23.31ZM116.21 24.64C115.435 24.64 114.768 24.4953 114.208 24.206C113.648 23.9167 113.214 23.506 112.906 22.974C112.607 22.442 112.458 21.812 112.458 21.084C112.458 20.3747 112.602 19.754 112.892 19.222C113.19 18.69 113.596 18.2747 114.11 17.976C114.632 17.668 115.225 17.514 115.888 17.514C116.858 17.514 117.624 17.822 118.184 18.438C118.753 19.054 119.038 19.894 119.038 20.958V21.476H114.138C114.268 22.6987 114.968 23.31 116.238 23.31C116.62 23.31 117.003 23.254 117.386 23.142C117.768 23.0207 118.118 22.834 118.436 22.582L118.926 23.758C118.599 24.0287 118.188 24.2433 117.694 24.402C117.199 24.5607 116.704 24.64 116.21 24.64ZM115.958 18.704C115.444 18.704 115.029 18.8627 114.712 19.18C114.394 19.4973 114.203 19.9267 114.138 20.468H117.582C117.544 19.8987 117.386 19.4647 117.106 19.166C116.835 18.858 116.452 18.704 115.958 18.704Z" fill="#F5F5F5"/>
<path d="M63.6 46.608C62.648 46.608 61.908 46.404 61.38 45.996C60.852 45.58 60.588 45 60.588 44.256C60.588 43.736 60.728 43.292 61.008 42.924C61.296 42.556 61.676 42.304 62.148 42.168C61.724 42.008 61.392 41.752 61.152 41.4C60.912 41.048 60.792 40.644 60.792 40.188C60.792 39.476 61.044 38.924 61.548 38.532C62.06 38.132 62.744 37.932 63.6 37.932C64.456 37.932 65.14 38.132 65.652 38.532C66.164 38.924 66.42 39.476 66.42 40.188C66.42 40.644 66.296 41.052 66.048 41.412C65.808 41.764 65.48 42.016 65.064 42.168C65.536 42.304 65.912 42.556 66.192 42.924C66.472 43.292 66.612 43.736 66.612 44.256C66.612 45 66.348 45.58 65.82 45.996C65.292 46.404 64.552 46.608 63.6 46.608ZM63.6 41.808C64.184 41.808 64.64 41.672 64.968 41.4C65.304 41.12 65.472 40.744 65.472 40.272C65.472 39.792 65.304 39.42 64.968 39.156C64.64 38.884 64.184 38.748 63.6 38.748C63.016 38.748 62.56 38.884 62.232 39.156C61.904 39.42 61.74 39.792 61.74 40.272C61.74 40.744 61.904 41.12 62.232 41.4C62.56 41.672 63.016 41.808 63.6 41.808ZM63.6 45.792C64.976 45.792 65.664 45.26 65.664 44.196C65.664 43.148 64.976 42.624 63.6 42.624C62.224 42.624 61.536 43.148 61.536 44.196C61.536 45.26 62.224 45.792 63.6 45.792ZM70.1713 46.608C68.7713 46.608 68.0713 45.836 68.0713 44.292V40.668H69.0433V44.28C69.0433 44.8 69.1473 45.184 69.3553 45.432C69.5713 45.68 69.9073 45.804 70.3633 45.804C70.8593 45.804 71.2633 45.64 71.5753 45.312C71.8873 44.976 72.0433 44.532 72.0433 43.98V40.668H73.0153V46.5H72.0673V45.516C71.8833 45.868 71.6233 46.14 71.2873 46.332C70.9593 46.516 70.5873 46.608 70.1713 46.608ZM75.5059 48.66L76.5019 46.404L74.0419 40.668H75.0979L77.0299 45.396L78.9739 40.668H79.9939L76.5259 48.66H75.5059ZM80.9979 46.5V38.04H81.9699V41.628C82.1619 41.276 82.4299 41.012 82.7739 40.836C83.1259 40.652 83.5179 40.56 83.9499 40.56C85.3339 40.56 86.0259 41.328 86.0259 42.864V46.5H85.0539V42.924C85.0539 42.38 84.9459 41.984 84.7299 41.736C84.5219 41.48 84.1859 41.352 83.7219 41.352C83.1859 41.352 82.7579 41.52 82.4379 41.856C82.1259 42.184 81.9699 42.624 81.9699 43.176V46.5H80.9979ZM87.8183 46.5V38.04H88.7903V41.628C88.9823 41.276 89.2503 41.012 89.5943 40.836C89.9463 40.652 90.3383 40.56 90.7703 40.56C92.1543 40.56 92.8463 41.328 92.8463 42.864V46.5H91.8743V42.924C91.8743 42.38 91.7663 41.984 91.5503 41.736C91.3423 41.48 91.0063 41.352 90.5423 41.352C90.0063 41.352 89.5783 41.52 89.2583 41.856C88.9463 42.184 88.7903 42.624 88.7903 43.176V46.5H87.8183ZM94.4826 46.5V45.276H95.7066V46.5H94.4826ZM97.213 46.5V45.276H98.437V46.5H97.213ZM99.9435 46.5V45.276H101.168V46.5H99.9435ZM104.942 46.608C104.51 46.608 104.074 46.516 103.634 46.332C103.194 46.148 102.834 45.9 102.554 45.588L102.926 44.808C103.214 45.12 103.53 45.352 103.874 45.504C104.226 45.656 104.586 45.732 104.954 45.732C105.738 45.732 106.342 45.44 106.766 44.856C107.19 44.272 107.402 43.404 107.402 42.252V41.652C107.242 42.18 106.954 42.596 106.538 42.9C106.13 43.196 105.646 43.344 105.086 43.344C104.59 43.344 104.15 43.232 103.766 43.008C103.382 42.776 103.082 42.46 102.866 42.06C102.65 41.66 102.542 41.2 102.542 40.68C102.542 40.144 102.654 39.672 102.878 39.264C103.11 38.848 103.426 38.524 103.826 38.292C104.234 38.052 104.702 37.932 105.23 37.932C106.23 37.932 106.998 38.296 107.534 39.024C108.078 39.744 108.35 40.756 108.35 42.06C108.35 43.516 108.05 44.64 107.45 45.432C106.85 46.216 106.014 46.608 104.942 46.608ZM105.29 42.516C105.826 42.516 106.262 42.344 106.598 42C106.934 41.648 107.102 41.196 107.102 40.644C107.102 40.084 106.934 39.632 106.598 39.288C106.262 38.936 105.826 38.76 105.29 38.76C104.762 38.76 104.33 38.936 103.994 39.288C103.658 39.632 103.49 40.084 103.49 40.644C103.49 41.196 103.658 41.648 103.994 42C104.33 42.344 104.762 42.516 105.29 42.516ZM112.713 46.608C111.761 46.608 111.021 46.404 110.493 45.996C109.965 45.58 109.701 45 109.701 44.256C109.701 43.736 109.841 43.292 110.121 42.924C110.409 42.556 110.789 42.304 111.261 42.168C110.837 42.008 110.505 41.752 110.265 41.4C110.025 41.048 109.905 40.644 109.905 40.188C109.905 39.476 110.157 38.924 110.661 38.532C111.173 38.132 111.857 37.932 112.713 37.932C113.569 37.932 114.253 38.132 114.765 38.532C115.277 38.924 115.533 39.476 115.533 40.188C115.533 40.644 115.409 41.052 115.161 41.412C114.921 41.764 114.593 42.016 114.177 42.168C114.649 42.304 115.025 42.556 115.305 42.924C115.585 43.292 115.725 43.736 115.725 44.256C115.725 45 115.461 45.58 114.933 45.996C114.405 46.404 113.665 46.608 112.713 46.608ZM112.713 41.808C113.297 41.808 113.753 41.672 114.081 41.4C114.417 41.12 114.585 40.744 114.585 40.272C114.585 39.792 114.417 39.42 114.081 39.156C113.753 38.884 113.297 38.748 112.713 38.748C112.129 38.748 111.673 38.884 111.345 39.156C111.017 39.42 110.853 39.792 110.853 40.272C110.853 40.744 111.017 41.12 111.345 41.4C111.673 41.672 112.129 41.808 112.713 41.808ZM112.713 45.792C114.089 45.792 114.777 45.26 114.777 44.196C114.777 43.148 114.089 42.624 112.713 42.624C111.337 42.624 110.649 43.148 110.649 44.196C110.649 45.26 111.337 45.792 112.713 45.792ZM119.333 46.608C118.901 46.608 118.465 46.516 118.025 46.332C117.585 46.148 117.225 45.9 116.945 45.588L117.317 44.808C117.605 45.12 117.921 45.352 118.265 45.504C118.617 45.656 118.977 45.732 119.345 45.732C120.129 45.732 120.733 45.44 121.157 44.856C121.581 44.272 121.793 43.404 121.793 42.252V41.652C121.633 42.18 121.345 42.596 120.929 42.9C120.521 43.196 120.037 43.344 119.477 43.344C118.981 43.344 118.541 43.232 118.157 43.008C117.773 42.776 117.473 42.46 117.257 42.06C117.041 41.66 116.933 41.2 116.933 40.68C116.933 40.144 117.045 39.672 117.269 39.264C117.501 38.848 117.817 38.524 118.217 38.292C118.625 38.052 119.093 37.932 119.621 37.932C120.621 37.932 121.389 38.296 121.925 39.024C122.469 39.744 122.741 40.756 122.741 42.06C122.741 43.516 122.441 44.64 121.841 45.432C121.241 46.216 120.405 46.608 119.333 46.608ZM119.681 42.516C120.217 42.516 120.653 42.344 120.989 42C121.325 41.648 121.493 41.196 121.493 40.644C121.493 40.084 121.325 39.632 120.989 39.288C120.653 38.936 120.217 38.76 119.681 38.76C119.153 38.76 118.721 38.936 118.385 39.288C118.049 39.632 117.881 40.084 117.881 40.644C117.881 41.196 118.049 41.648 118.385 42C118.721 42.344 119.153 42.516 119.681 42.516ZM127.104 46.608C126.152 46.608 125.412 46.404 124.884 45.996C124.356 45.58 124.092 45 124.092 44.256C124.092 43.736 124.232 43.292 124.512 42.924C124.8 42.556 125.18 42.304 125.652 42.168C125.228 42.008 124.896 41.752 124.656 41.4C124.416 41.048 124.296 40.644 124.296 40.188C124.296 39.476 124.548 38.924 125.052 38.532C125.564 38.132 126.248 37.932 127.104 37.932C127.96 37.932 128.644 38.132 129.156 38.532C129.668 38.924 129.924 39.476 129.924 40.188C129.924 40.644 129.8 41.052 129.552 41.412C129.312 41.764 128.984 42.016 128.568 42.168C129.04 42.304 129.416 42.556 129.696 42.924C129.976 43.292 130.116 43.736 130.116 44.256C130.116 45 129.852 45.58 129.324 45.996C128.796 46.404 128.056 46.608 127.104 46.608ZM127.104 41.808C127.688 41.808 128.144 41.672 128.472 41.4C128.808 41.12 128.976 40.744 128.976 40.272C128.976 39.792 128.808 39.42 128.472 39.156C128.144 38.884 127.688 38.748 127.104 38.748C126.52 38.748 126.064 38.884 125.736 39.156C125.408 39.42 125.244 39.792 125.244 40.272C125.244 40.744 125.408 41.12 125.736 41.4C126.064 41.672 126.52 41.808 127.104 41.808ZM127.104 45.792C128.48 45.792 129.168 45.26 129.168 44.196C129.168 43.148 128.48 42.624 127.104 42.624C125.728 42.624 125.04 43.148 125.04 44.196C125.04 45.26 125.728 45.792 127.104 45.792Z" fill="#CACACA"/>
<path d="M143 26L146.293 29.2929C146.626 29.6262 146.793 29.7929 147 29.7929C147.207 29.7929 147.374 29.6262 147.707 29.2929L151 26" stroke="#F7F7F7" stroke-width="1.5" stroke-linecap="round" stroke-linejoin="round"/>
</g>
<defs>
<filter id="filter0_bi_1_4436" x="-30" y="-30" width="223" height="116" filterUnits="userSpaceOnUse" color-interpolation-filters="sRGB">
<feFlood flood-opacity="0" result="BackgroundImageFix"/>
<feGaussianBlur in="BackgroundImageFix" stdDeviation="15"/>
<feComposite in2="SourceAlpha" operator="in" result="effect1_backgroundBlur_1_4436"/>
<feBlend mode="normal" in="SourceGraphic" in2="effect1_backgroundBlur_1_4436" result="shape"/>
<feColorMatrix in="SourceAlpha" type="matrix" values="0 0 0 0 0 0 0 0 0 0 0 0 0 0 0 0 0 0 127 0" result="hardAlpha"/>
<feOffset dy="4"/>
<feGaussianBlur stdDeviation="8"/>
<feComposite in2="hardAlpha" operator="arithmetic" k2="-1" k3="1"/>
<feColorMatrix type="matrix" values="0 0 0 0 0.129412 0 0 0 0 0.101961 0 0 0 0 0.2 0 0 0 0.24 0"/>
<feBlend mode="normal" in2="shape" result="effect2_innerShadow_1_4436"/>
</filter>
<linearGradient id="paint0_linear_1_4436" x1="0" y1="0" x2="164.456" y2="51.3372" gradientUnits="userSpaceOnUse">
<stop stop-color="#0D0D0D" stop-opacity="0.3"/>
<stop offset="1" stop-color="#737373" stop-opacity="0.1"/>
</linearGradient>
</defs>
</svg>
