<svg width="32" height="32" viewBox="0 0 32 32" fill="none" xmlns="http://www.w3.org/2000/svg">
<g clip-path="url(#clip0_1_4454)">
<path d="M16.0001 32C24.8367 32 32.0001 24.8365 32.0001 16C32.0001 7.16341 24.8367 -3.05176e-05 16.0001 -3.05176e-05C7.16357 -3.05176e-05 0.00012207 7.16341 0.00012207 16C0.00012207 24.8365 7.16357 32 16.0001 32Z" fill="#26A17B"/>
<path fill-rule="evenodd" clip-rule="evenodd" d="M17.9221 17.3833V17.3813C17.8121 17.3893 17.2451 17.4233 15.9801 17.4233C14.9701 17.4233 14.2591 17.3933 14.0091 17.3813V17.3843C10.1211 17.2133 7.21912 16.5363 7.21912 15.7263C7.21912 14.9173 10.1211 14.2403 14.0091 14.0663V16.7103C14.2631 16.7283 14.9911 16.7713 15.9971 16.7713C17.2041 16.7713 17.8091 16.7213 17.9221 16.7113V14.0683C21.8021 14.2413 24.6971 14.9183 24.6971 15.7263C24.6971 16.5363 21.8021 17.2113 17.9221 17.3833ZM17.9221 13.7933V11.4273H23.3361V7.81927H8.59513V11.4273H14.0091V13.7923C9.60912 13.9943 6.30013 14.8663 6.30013 15.9103C6.30013 16.9543 9.60912 17.8253 14.0091 18.0283V25.6103H17.9221V18.0263C22.3151 17.8243 25.6161 16.9533 25.6161 15.9103C25.6161 14.8673 22.3151 13.9963 17.9221 13.7933Z" fill="white"/>
</g>
<defs>
<clipPath id="clip0_1_4454">
<rect width="32" height="32" rx="16" fill="white"/>
</clipPath>
</defs>
</svg>
